<svg width="114.842407" height="18.708984" viewBox="0 0 114.842 18.709" fill="none" xmlns="http://www.w3.org/2000/svg" xmlns:xlink="http://www.w3.org/1999/xlink">
	<desc>
			Created with Pixso.
	</desc>
	<defs/>
	<path id="Exclusive" d="M85.0665 1.83398C85.0665 2.84766 84.1758 3.67383 83.0977 3.67383C82.0196 3.67383 81.1348 2.84766 81.1348 1.83398C81.1348 0.826172 82.0196 0 83.0977 0C84.1758 0 85.0665 0.826172 85.0665 1.83398ZM11.7949 18.4512L0 18.4512L0 0.996094L11.7598 0.996094L11.7598 4.03711L3.69141 4.03711L3.69141 8.19727L11.1562 8.19727L11.1562 11.2383L3.69141 11.2383L3.69141 15.4102L11.7949 15.4102L11.7949 18.4512ZM44.1749 0.996094L47.8077 0.996094L47.8077 18.4512L44.1749 18.4512L44.1749 0.996094ZM41.1239 13.6523C40.9482 16.6641 38.7626 18.709 35.2763 18.709C31.245 18.709 28.831 15.9375 28.831 11.959C28.831 7.94531 31.2861 5.19141 35.2587 5.19141C38.6747 5.19141 40.9657 7.17773 41.1239 10.2012L37.6962 10.2012C37.497 8.89453 36.6474 8.02148 35.3173 8.02148C33.6298 8.02148 32.5224 9.43359 32.5224 11.9062C32.5224 14.4141 33.6239 15.832 35.3173 15.832C36.5595 15.832 37.4794 15.0527 37.6962 13.6523L41.1239 13.6523ZM72.3869 5.19141C75.6916 5.19141 77.6369 6.67969 77.9592 9.09375L74.6369 9.29883C74.4553 8.45508 73.7053 7.76367 72.4455 7.76367C71.3205 7.76367 70.4358 8.27344 70.4416 9.05859C70.4358 9.69141 70.8869 10.1074 72.1057 10.3711L74.4729 10.8516C77.0158 11.3672 78.2522 12.5039 78.258 14.3965C78.2522 16.9746 75.8205 18.709 72.4279 18.709C68.9592 18.709 66.8322 17.1621 66.4865 14.6602L70.0608 14.4727C70.2834 15.5391 71.1447 16.0898 72.4397 16.0898C73.7053 16.0898 74.549 15.5391 74.5666 14.7598C74.549 14.1035 74.0334 13.6875 72.8908 13.459L70.6233 13.0078C68.0627 12.4922 66.8322 11.2266 66.8381 9.26367C66.8322 6.73828 69.0354 5.19141 72.3869 5.19141ZM114.766 14.7012C114.256 17.1328 112.071 18.709 108.831 18.709C104.799 18.709 102.338 16.1133 102.338 11.9648C102.338 7.92773 104.835 5.19141 108.69 5.19141C112.147 5.19141 114.842 7.38867 114.842 11.8359L114.842 12.832L105.924 12.832L105.924 12.8438C105.924 14.7949 107.079 15.9961 108.895 15.9961C110.102 15.9961 111.04 15.4746 111.409 14.4785L114.766 14.7012ZM14.6365 5.36133L18.3865 5.36133L20.7889 9.9375L23.2557 5.36133L26.9764 5.36133L23.1854 11.9062L27.0819 18.4512L23.3729 18.4512L20.7889 13.9277L18.2518 18.4512L14.5018 18.4512L18.3865 11.9062L14.6365 5.36133ZM57.3237 15.5508C58.6245 15.5508 59.8257 14.6309 59.8198 12.8789L59.8198 5.36133L63.4526 5.36133L63.4526 18.4512L59.9663 18.4512L59.9663 16.0723L59.8257 16.0723C59.2397 17.6074 57.8276 18.6211 55.8589 18.6211C53.2222 18.6211 51.435 16.7578 51.4233 13.6934L51.4233 5.36133L55.0561 5.36133L55.0561 13.0488C55.062 14.5898 55.9526 15.5508 57.3237 15.5508ZM84.9024 18.4512L81.2696 18.4512L81.2696 5.36133L84.9024 5.36133L84.9024 18.4512ZM96.8793 5.36133L100.723 5.36133L96.1469 18.4512L92.0571 18.4512L87.4809 5.36133L91.3129 5.36133L94.0317 14.7246L94.1723 14.7246L96.8793 5.36133ZM108.749 7.89844C107.137 7.89844 106.006 9.09375 105.924 10.582L111.426 10.582C111.415 9.02344 110.325 7.89844 108.749 7.89844Z" fill="#000000" fill-opacity="1.000000" fill-rule="evenodd"/>
</svg>
